# xmcd CD database file
#
# Track frame offsets:
#	150
#	14401
#	30486
#	46687
#	58693
#	74799
#	91198
#	110696
#	124433
#	137561
#	151681
#	166873
#	178566
#	194248
#	205498
#	221421
#
# Disc length: 3205 seconds
#
# Revision: 0
# Processed by: cddbd v1.5.1PL0 Copyright (c) Steve Scherf et al.
# Submitted via: NeoAudio 9.9.9
#
DISCID=e70c8310
DTITLE=Palazzo - Live Country CD 3
DYEAR=2005
DGENRE=Country
TTITLE0=adios baby
TTITLE1=lf l didn't have you in my world
TTITLE2=l want my baby back
TTITLE3=the cowboy in that stetson hat
TTITLE4=things aren't funny anymore
TTITLE5=still dancin
TTITLE6=play me the walz of the angels
TTITLE7=don't come crying
TTITLE8=the chair
TTITLE9=safe in the arms of love
TTITLE10=l'll never forgive my heart
TTITLE11=lt's a little too late
TTITLE12=table for two
TTITLE13=lt only hurts me when l laugh
TTITLE14=tonight she's holdin her own
TTITLE15=does he love you
EXTD=YEAR: 2005
EXTT0=
EXTT1=
EXTT2=
EXTT3=
EXTT4=
EXTT5=
EXTT6=
EXTT7=
EXTT8=
EXTT9=
EXTT10=
EXTT11=
EXTT12=
EXTT13=
EXTT14=
EXTT15=
PLAYORDER=
